<!-- Generator: Adobe Illustrator 19.2.1, SVG Export Plug-In  -->
<svg version="1.1"
	 xmlns="http://www.w3.org/2000/svg" xmlns:xlink="http://www.w3.org/1999/xlink" xmlns:a="http://ns.adobe.com/AdobeSVGViewerExtensions/3.0/"
	 x="0px" y="0px" width="703.044px" height="127.192px" viewBox="0 0 703.044 127.192"
	 style="enable-background:new 0 0 703.044 127.192;" xml:space="preserve">
<style type="text/css">
	.st0{fill:#B3CE89;}
	.st1{fill:#E5A3C3;}
</style>
<defs>
</defs>
<g>
	<g>
		<path class="st0" d="M624.133,106.549c1.109,0,1.896,0,2.772,0c1.205,4.651,2.375,9.199,3.571,13.739
			c0.156,0.593,0.66,1.164,0.624,1.721c-0.058,0.903-0.186,2.012-0.741,2.611c-0.497,0.536-1.678,0.78-2.425,0.602
			c-0.402-0.096-0.528-1.35-1.009-2.756c-0.99,1.069-1.827,1.973-3.174,3.428c-2.511-0.44-5.746-0.886-8.908-1.638
			c-0.874-0.208-1.857-1.191-2.221-2.057c-0.841-2.001-1.383-4.135-1.954-6.24c-0.662-2.443-1.092-4.955-1.857-7.363
			c-1.754-5.52-3.771-10.957-5.453-16.498c-1.384-4.558-2.299-9.259-3.683-13.818c-1.115-3.673-3.449-4.56-6.857-2.895
			c-0.567,0.277-1.098,0.957-1.304,1.566c-0.315,0.933-0.454,1.966-0.458,2.958c-0.057,13.034-0.076,26.069-0.105,39.103
			c0,0.091,0.005,0.183,0.008,0.274c0.136,5.856-0.387,6.419-6.256,6.311c-3.369-0.062-6.739-0.208-10.103-0.406
			c-2.104-0.124-3.121-1.258-3.451-3.454c-0.879-5.842-0.759-11.607,0.601-17.352c0.104-0.441,0.25-0.898,0.226-1.339
			c-0.462-8.333-1.083-16.66-1.378-24.998c-0.177-5.009,0.144-10.036,0.245-15.055c0.106-5.247,0.202-10.494,0.328-15.741
			c0.096-4.013,0.285-8.024,0.326-12.038c0.017-1.624-0.332-3.25-0.372-4.878c-0.185-7.555-0.23-15.115-0.519-22.665
			c-0.106-2.775,1.543-5.627,5.195-5.635c9.016-0.02,18.064-0.184,27.029,0.561c2.394,0.199,4.767,0.062,7.137,0.25
			c4.507,0.356,7.682,3.455,11.246,5.688c7.535,4.721,9.026,12.531,9.553,20.431c0.496,7.439,0.705,14.985,0.017,22.39
			c-0.735,7.911-4.448,14.601-11.579,18.901c-1.549,0.934-2.174,4.238-1.278,6.961c1.171,3.56,2.984,6.782,3.321,10.774
			c0.349,4.134,2.281,8.14,3.571,12.186C625.908,103.606,625.94,103.596,624.133,106.549z M623.182,49.626
			c-1.019,0.533-2.037,1.066-3.371,1.764c0-2.163,0-4.085,0-6.163c-1.249,0.104-2.374,0.197-3.31,0.275
			c-2.829,5.327,1.731,8,3.802,11.713c1.825-1.783,4.756-2.894,2.828-6.322c-0.192-0.342-0.026-0.886-0.025-1.337
			c2.982-2.232,1.1-4.337-0.513-7.34c-0.893,1.461-2.097,2.568-1.919,3.367c0.208,0.936,1.621,1.604,2.764,2.611
			C623.43,48.236,623.306,48.931,623.182,49.626z M611.387,42.209c-0.231-7.027,0.069-12.741-2.601-17.964
			c-0.682-1.334-1.52-3.31-2.625-3.573c-3.417-0.814-6.99-1.139-10.516-1.265c-2.029-0.072-3.794,0.886-3.989,3.408
			c-0.146,1.891-0.653,3.772-0.636,5.655c0.05,5.812,0.337,11.621,0.399,17.433c0.025,2.358-0.345,4.717-0.44,7.079
			c-0.152,3.758,3.618,6.244,7.037,5.733c1.801-0.269,3.597-0.571,5.398-0.846c4.33-0.66,6.511-2.473,7.206-6.717
			C611.177,47.753,611.224,44.269,611.387,42.209z M606.115,8.016c1.147,2.758,1.97,4.736,2.803,6.738
			c3.202,0.108,3.447-2.219,3.517-5.113C610.57,9.162,608.615,8.659,606.115,8.016z M590.398,37.122
			c-0.85-1.522-1.431-2.563-2.012-3.604c-0.276,0.122-0.552,0.245-0.827,0.367c0,0.612,0.111,1.253-0.032,1.829
			c-0.135,0.543-0.54,1.018-0.969,1.776C587.706,37.38,588.572,37.297,590.398,37.122z M579.753,63.781
			c2.903-1.241,3.687-2.929,2.938-6.238C581.652,59.749,580.785,61.589,579.753,63.781z"/>
		<path class="st0" d="M437.229,41.711c-1.823-0.354-3.43-0.666-5.052-0.98c-0.753-0.934-1.466-2.598-2.635-3.031
			c-1.014-0.376-2.545,0.643-3.847,1.045c0.067,0.227,0.133,0.454,0.2,0.681c1.23,0.587,2.46,1.174,3.691,1.761
			c-0.288,0.02-0.577,0.04-0.865,0.059c-0.164,1.31-0.955,3.148-0.378,3.835c1.959,2.332,1.867,4.186-0.602,6.078
			c1.713,1.826,3.241,3.455,4.77,5.084c0.161-0.114,0.322-0.228,0.483-0.342c-0.102-0.29-0.129-0.648-0.319-0.86
			c-2.426-2.699-1.821-5.84-1.277-8.941c0.19-1.085,3.976-2.248,5.288-1.725c-1.435,4.032,0.833,9,4.995,9.475
			c4.453,0.508,9.038,0.155,13.54-0.175c2.599-0.191,3.836-2.103,3.867-4.743c0.114-9.722,0.283-19.444,0.361-29.167
			c0.019-2.432-1.167-5.25,3.153-6.082c-4.097-1.197-3.464-3.844-2.98-6.448c0.682-3.67,1.132-4.092,4.888-4.289
			c3.597-0.189,7.196-0.328,10.794-0.502c2.247-0.109,3.412,1.132,3.656,3.183c0.321,2.707,0.635,5.441,0.611,8.16
			c-0.111,12.288-0.317,24.576-0.54,36.863c-0.134,7.367-0.439,14.732-0.513,22.1c-0.029,2.908,0.394,5.818,0.553,8.73
			c0.213,3.912,0.491,7.826,0.525,11.742c0.07,7.927-0.064,15.856-0.003,23.784c0.058,7.576-0.376,8.065-7.856,8.066
			c-2.921,0.001-5.842,0.16-8.764,0.171c-2.677,0.01-3.651-1.009-3.767-3.752c-0.004-0.091-0.009-0.183-0.007-0.274
			c0.175-10.835,0.409-21.669,0.495-32.505c0.034-4.277-0.203-8.56-0.438-12.833c-0.104-1.889-1.049-3.315-3.136-3.52
			c-1.806-0.178-3.621-0.305-5.434-0.361c-2.461-0.076-4.948,0.148-7.38-0.135c-3.81-0.443-5.89,1.176-5.977,4.966
			c-0.119,5.193-0.371,10.385-0.417,15.579c-0.081,9.214-0.037,18.43-0.073,27.645c-0.017,4.46-0.477,5.07-4.972,5.269
			c-3.938,0.174-7.893,0.016-11.839-0.071c-2.778-0.061-3.136-2.466-3.159-4.248c-0.212-16.782-0.237-33.566-0.309-50.349
			c-0.001-0.352,0.081-0.705,0.154-1.29c0.817,0.348,1.515,0.646,2.214,0.943c0.152-0.215,0.304-0.431,0.455-0.646
			c-0.75-0.533-1.5-1.066-2.907-2.065c0.361-5.62,0.833-12.1,1.149-18.587c0.064-1.316-0.672-2.66-0.679-3.993
			c-0.036-6.115,0.076-12.23,0.097-18.345c0.022-6.449,0.045-12.898-0.022-19.346c-0.037-3.596,0.847-4.795,4.377-4.973
			c3.634-0.183,7.292-0.403,10.913-0.178c3.105,0.192,4.46,1.75,4.532,4.937c0.138,6.153,0.015,12.311,0.041,18.468
			c0.018,4.131,0.098,8.261,0.17,12.391C437.071,39.14,437.16,40.309,437.229,41.711z M426.612,9.925
			c-0.186-1.11-0.371-2.22-0.629-3.764c-1.264,1.138-2.324,2.092-3.383,3.046c0.062,0.22,0.124,0.439,0.187,0.659
			c1.298,0,2.596,0,3.894,0c-0.677,1.287-1.354,2.575-2.149,4.086c0.973-0.125,1.798-0.232,2.389-0.308
			c0.576,1.402,1.13,2.749,1.65,4.015c0.927-1.25,1.633-2.201,2.339-3.152c0.321-0.587,0.345-1.623,0.473-2.646
			c0.225-1.799-1.227-3.026-2.968-2.47C427.823,9.579,427.224,9.738,426.612,9.925z M453.789,64.669
			c0.381-0.234,0.761-0.467,1.142-0.701c-0.558-1.269-1.116-2.537-1.898-4.313c1.563,0.665,2.578,1.097,3.735,1.589
			c0.263-0.915,0.476-1.654,0.752-2.614c-2.018,0.099-3.763,0.185-5.507,0.27c-3.583-1.824-7.485,0.366-11.773-0.41
			c1.351,3.014,2.434,5.432,3.705,8.268c1.913-0.459,3.761-0.901,5.609-1.344c-0.009-0.349-0.018-0.697-0.027-1.045
			c-0.696-0.265-1.461-0.427-2.063-0.832c-0.407-0.274-0.584-0.89-0.863-1.353c0.559,0.034,1.119,0.059,1.677,0.104
			c0.578,0.046,1.208,0.292,1.721,0.136C451.913,61.844,453.629,61.488,453.789,64.669z M465.369,36.478
			c2.506-1.393,2.506-1.393,5.921,3.357c-0.402,0.626-0.792,1.232-1.182,1.838c1.027,0.35,2.053,0.699,3.06,1.042
			c0-7.295,0-14.126,0-20.748c-3.147,1.657-3.479,4.642-1.551,8.033c-0.77,0.66-1.402,1.124-1.94,1.68
			c-0.739,0.764-1.397,1.604-2.106,2.398C466.847,34.887,466.104,35.678,465.369,36.478z M462.338,54.521
			c1.177,0.491,2.202,0.615,2.733,1.194c2.207,2.406,4.215,5.088,8.053,2.971c0.142-0.079,0.225-0.266,0.445-0.539
			c-0.509-4.976-4.708-5.803-8.496-7.261C464.156,52.103,463.228,53.337,462.338,54.521z M471.341,95.601
			c0.481-0.566,0.972-1.349,1.123-1.288c0.811,0.327,1.362,0.444,1.008-0.681c-0.108-0.345-0.961-0.826-1.044-0.753
			c-1.061,0.927-3.079,2.429-2.878,2.856c1.194,2.541-1.402,3.215-2.005,4.784c-0.595,1.548-1.623,2.93-2.353,4.198
			c1.819,0.672,3.145,1.161,4.673,1.725c-0.792-3.157,1.306-5.545,3.566-7.832C472.698,97.556,472.042,96.611,471.341,95.601z
			 M468.945,110.917c-2.113,0.297-3.494,1.31-4.352,3.236c-0.874,1.962,0.933,2.197,1.739,3.122
			c0.399,0.458,0.427,1.378,0.877,1.622c0.772,0.419,1.781,0.719,2.617,0.59c0.537-0.083,1.121-0.958,1.353-1.598
			c0.232-0.638,0.051-1.426,0.051-2.297C467.717,115.628,469.649,112.643,468.945,110.917z M421.221,16.498
			c-0.208,0.224-0.416,0.447-0.624,0.671c1.041,2.713,2.082,5.425,3.195,8.325c1.524-1.584,2.334-6.656,1.134-7.817
			C424.092,16.869,422.483,16.862,421.221,16.498z M468.161,14.463c-0.773,1.602-1.182,2.451-1.59,3.296
			c-1.085-0.508-2.007-0.94-3.443-1.613c0.488,2.73,0.871,4.876,1.255,7.022c0.271,0.028,0.543,0.056,0.814,0.084
			c1.268-2.368,2.573-4.718,3.755-7.128C469.088,15.845,468.543,15.23,468.161,14.463z M430.877,31.107
			c-1.853-2.254-3.302-4.017-5.083-6.184C424.997,28.932,427.121,31.626,430.877,31.107z M420.28,26.406
			c1.075,1.223,1.882,2.142,2.689,3.06c0.554-0.493,1.632-1.06,1.574-1.466C424.268,26.077,422.944,25.62,420.28,26.406z
			 M465.949,39.953c-0.453,1.155-1.029,2.301-1.323,3.515c-0.135,0.558,0.283,1.25,0.45,1.882c0.877-0.921,0.868-1.822,1.312-2.309
			C468.226,41.028,468.249,40.972,465.949,39.953z"/>
		<path class="st0" d="M655.745,1.929c0.555,1.995,0.994,3.57,1.432,5.144c0.256,0.084,0.511,0.169,0.767,0.253
			c0.514-1.632,1.028-3.265,1.558-4.949c1.789-0.107,3.786-0.227,6.092-0.366c0.197,0.276,0.654,0.917,1.103,1.548
			c3.773-2.188,7.833-1.179,11.69-1.45c5.54-0.39,11.119-0.29,16.681-0.297c1.516-0.002,3.075,0.214,4.53,0.627
			c0.616,0.175,1.479,1.184,1.404,1.691c-0.112,0.759-0.954,1.409-1.686,2.368c0.569,0.289,1.422,0.723,2.674,1.361
			c0,2.333-0.024,4.968,0.006,7.602c0.034,3.009-2.567,3.135-4.423,3.984c-0.787,0.36-1.928,0.579-2.678,0.282
			c-3.717-1.475-7.362-0.238-11.035,0.02c-0.606,0.042-1.227-0.144-2.121-0.262c1.461-2.915-0.622-3.848-2.838-4.79
			c2.571-1.844,4.347-3.781,3.161-7.436c-0.924,1.057-1.706,1.953-2.192,2.51c-0.571-0.919-1.214-2.782-1.817-2.769
			c-2.029,0.043-4.794-1.415-5.656,1.801c-1.321,0-2.46,0-3.636,0c0,1.969,0,3.729,0,5.488c0.732-1.792,4.273-1.321,3.435-4.263
			c-0.028-0.097,1.283-0.867,1.905-0.79c1.044,0.128,2.035,0.684,2.572,0.884c0,1.606-0.163,3.045,0.032,4.434
			c0.496,3.542-0.201,4.851-3.654,5.194c-2.803,0.279-4.098,1.451-3.932,4.281c0.142,2.422,0.217,4.851,0.248,7.277
			c0.048,3.801,0.063,7.604,0.035,11.405c-0.014,1.916-0.229,3.831-0.219,5.746c0.02,3.602,0.387,4.237,3.918,4.549
			c3.408,0.301,6.864,0.018,10.297,0.073c2.514,0.04,5.06,0.003,7.53,0.391c2.133,0.335,2.633,5.392,1.601,7.428
			c0.067,1.307,0.154,2.613,0.181,3.921c0.005,0.238-0.279,0.468-0.358,0.724c-0.411,1.333-0.428,3.438-1.272,3.846
			c-1.611,0.778-3.687,0.745-5.574,0.773c-4.645,0.07-9.293,0.024-13.938-0.06c-1.664-0.03-2.285,0.787-2.371,2.28
			c-0.005,0.091-0.027,0.182-0.026,0.273c0.046,6.837,0.172,13.674,0.104,20.51c-0.029,2.888-0.449,5.773-0.723,8.656
			c-0.338,3.555,1.343,5.404,4.984,5.426c1.174,0.007,2.348,0.001,3.522,0.001c0.119,0.285,0.237,0.57,0.356,0.855
			c-0.91,0.481-1.886,0.871-2.714,1.467c-0.967,0.695-1.805,1.57-2.732,2.396c1.232,0.551,2.219,0.992,3.206,1.434
			c-0.605,0.551-1.209,1.101-1.936,1.763c0.315,0.372,0.652,0.77,1.092,1.289c-1.769,0.291-3.444-2.24-5.111,0.261
			c2.131,1.024,4.094,1.968,6.438,3.094c0-1.63,0-2.813,0-4.081c0.968-0.372,1.804-0.694,2.655-1.021
			c0.038-0.151,0.138-0.331,0.115-0.494c-0.985-6.992-1.573-7.071,5.862-7.051c3.068,0.008,6.131,0.729,9.205,0.819
			c1.366,0.04,2.758-0.667,4.132-1.056c2.466-0.698,4.287,0.265,4.585,2.673c0.543,4.384,1.006,8.843,0.773,13.232
			c-0.128,2.414-2.959,2.811-5.035,2.787c-1.927-0.022-3.843-0.71-5.773-1.049c-0.971-0.171-1.964-0.318-2.945-0.306
			c-7.061,0.087-14.124,0.142-21.181,0.376c-2.493,0.083-4.999,0.501-7.448,1.009c-3.959,0.821-9.21-0.272-10.821-3.992
			c-0.792-1.829-0.967-3.977-1.157-6.005c-0.323-3.456-0.525-6.93-0.599-10.401c-0.037-1.717,0.359-3.439,0.494-5.164
			c0.179-2.272,0.511-4.56,0.402-6.823c-0.858-17.674,0.403-35.348-0.067-53.019c-0.124-4.655-0.359-9.31-0.346-13.964
			c0.005-1.975,0.57-3.942,0.775-5.924c0.099-0.952-0.093-1.93-0.073-2.895c0.087-4.242-0.211-8.548,0.435-12.705
			C650.203,1.136,653.853,2.58,655.745,1.929z M656.9,31.376c-0.786,0.859-1.853,1.561-1.755,2.008
			c0.251,1.146,1.028,2.174,1.58,3.257c0.337,0.662,1.078,1.753,0.897,1.942c-1.309,1.369-0.665,2.689,0.272,3.558
			c0.766,0.71,2.106,0.8,3.744,1.35c-0.594-1.404-0.891-2.107-1.189-2.809c0.22,0.061,0.441,0.121,0.661,0.182
			c0.841-1.516,1.874-2.96,2.475-4.566c0.714-1.908-0.614-4.199-2.685-4.467c-2.014-0.261-0.759-1.989-1.571-2.692
			c2.77-3.028-0.795-5.005-0.808-7.648c-1.84,0.638-3.246,1.126-4.655,1.614c0.509,2.497,0.509,2.497,4.199,1.942
			c0,0.967,0.113,2.677-0.016,2.696C654.512,28.248,656.692,30.207,656.9,31.376z M652.087,61.243
			c0.292,0.253,0.584,0.507,0.876,0.76c2.796-1.785,5.592-3.571,7.964-5.085c0-1.44,0.144-2.463-0.049-3.418
			c-0.137-0.679-0.73-1.265-1.119-1.893c-0.124,0.135-0.248,0.271-0.372,0.406c0,0.727,0,1.454,0,2.18
			c-1.254-0.098-2.509-0.197-3.923-0.307C656.93,57.213,654.353,59.163,652.087,61.243z M657.38,67.417
			c-3.893-0.602-4.494-0.049-4.529,3.078c-0.01,0.903-0.253,1.823-0.144,2.705c0.269,2.168-0.611,4.691,1.908,6.578
			c0-3.63,0-6.918,0-10.238C655.291,69.022,656.336,68.219,657.38,67.417z M656.384,61.857c-0.09,0.368-0.181,0.736-0.272,1.104
			c2.013,0.825,4.027,1.65,6.04,2.476c0.24-0.309,0.481-0.617,0.721-0.926c-0.577-1.146-1.154-2.292-1.731-3.438
			c-0.641,0.476-1.283,0.951-1.731,1.283C658.369,62.184,657.377,62.02,656.384,61.857z M667.09,18.891
			c0.997-4.786,0.997-4.786-3.309-5.149c0,0.963,0,1.922,0,3.049c0.957-0.176,1.706-0.314,2.444-0.45
			C666.464,17.046,666.687,17.705,667.09,18.891z M666.718,6.414c-1.234,0-2.27,0-3.335,0c-0.301,1.238-0.558,2.299-0.816,3.36
			c0.205,0.112,0.409,0.224,0.614,0.336C664.333,8.906,665.485,7.703,666.718,6.414z"/>
		<path class="st0" d="M506.689,1.986c0.52,1.897,0.953,3.474,1.385,5.051c0.258,0.09,0.517,0.181,0.776,0.271
			c0.521-1.695,1.041-3.39,1.514-4.93c1.938-0.106,3.868-0.212,6.175-0.338c0.15,0.215,0.6,0.86,1.05,1.505
			c0.02-0.271,0.04-0.542,0.06-0.813c3.867-0.234,7.731-0.563,11.602-0.68c5.56-0.168,11.124-0.227,16.686-0.234
			c1.517-0.002,3.074,0.205,4.531,0.61c0.621,0.172,1.491,1.151,1.43,1.668c-0.088,0.756-0.912,1.426-1.621,2.407
			c0.482,0.262,1.319,0.716,2.619,1.422c0,2.23-0.035,4.864,0.009,7.497c0.051,3.011-2.518,3.191-4.388,4.014
			c-0.873,0.384-2.13,0.626-2.946,0.288c-3.548-1.468-7-0.322-10.493,0.025c-0.696,0.069-1.418-0.125-2.416-0.227
			c1.363-2.874-0.514-3.926-2.954-4.816c2.793-1.76,4.242-3.846,3.348-7.574c-1.023,1.175-1.796,2.063-2.322,2.668
			c-0.536-0.909-1.14-2.796-1.738-2.794c-2.032,0.007-4.762-1.377-5.665,1.78c-1.314,0-2.455,0-3.682,0c0,1.96,0,3.724,0,5.785
			c1.306-1.107,2.384-2.02,3.554-3.011c-0.465-2.559-0.101-2.674,4.37-1.438c0,1.575-0.165,3.009,0.032,4.391
			c0.506,3.555-0.2,4.82-3.608,5.246c-2.474,0.309-4.177,0.999-3.946,3.958c0.203,2.596,0.254,5.208,0.281,7.813
			c0.04,3.713,0.023,7.427-0.021,11.14c-0.024,2.007-0.065,4.022-0.26,6.018c-0.269,2.757,1.162,4.133,3.643,4.279
			c3.515,0.206,7.049,0.058,10.574,0.125c2.513,0.048,5.042,0.054,7.53,0.359c1.678,0.205,2.78,5.079,1.601,6.552
			c-0.269,0.337-0.57,0.648-0.088,1.032c0.185,0.984,0.571,1.982,0.507,2.95c-0.087,1.304-0.293,2.702-0.88,3.837
			c-0.452,0.875-1.535,1.939-2.397,1.995c-3.17,0.207-6.366-0.025-9.551,0.013c-2.918,0.034-5.848,0.079-8.742,0.397
			c-0.763,0.084-1.435,1.177-2.095,1.859c-0.15,0.155-0.1,0.528-0.099,0.8c0.037,6.655,0.152,13.312,0.089,19.966
			c-0.027,2.887-0.38,5.775-0.655,8.655c-0.378,3.952,1.194,5.724,5.187,5.738c1.09,0.004,2.18,0.001,3.27,0.001
			c0.123,0.275,0.245,0.551,0.368,0.826c-0.896,0.486-1.852,0.89-2.673,1.481c-0.969,0.698-1.821,1.558-2.81,2.423
			c1.257,0.536,2.251,0.96,3.246,1.383c-0.507,0.638-1.015,1.275-1.669,2.098c0.051,0.064,0.38,0.476,0.845,1.06
			c-1.763,0.208-3.432-2.231-5.153,0.168c2.144,1.042,4.096,1.992,6.445,3.134c0-1.621,0-2.803,0-4.062
			c0.954-0.381,1.785-0.712,2.762-1.102c-0.131-1.078-0.315-2.225-0.401-3.379c-0.275-3.692-0.03-4.136,3.782-4.086
			c3.896,0.052,7.784,0.655,11.682,0.768c1.364,0.04,2.756-0.633,4.123-1.023c2.453-0.701,4.296,0.219,4.604,2.627
			c0.559,4.382,0.797,8.819,0.885,13.239c0.034,1.724-3.111,3.2-5.633,2.83c-4.066-0.596-8.025-1.702-12.263-1.09
			c-3.741,0.54-7.617,0.86-11.36,0.506c-4.934-0.466-9.7,0.029-14.549,0.706c-6.67,0.931-11.267-3.445-10.766-10.071
			c0.26-3.433-0.403-6.927-0.477-10.398c-0.036-1.717,0.352-3.439,0.486-5.163c0.178-2.273,0.702-4.611,0.368-6.814
			c-1.338-8.828,0.402-17.633-0.102-26.472c-0.503-8.822,0.061-17.702,0.051-26.556c-0.006-4.655-0.336-9.31-0.326-13.964
			c0.004-1.975,0.556-3.945,0.763-5.927c0.099-0.954-0.06-1.933-0.041-2.899c0.081-4.24-0.084-8.51,0.386-12.708
			C500.785,2.42,502.046,2.145,506.689,1.986z M505.812,32.728c0.524,1.853,0.279,3.835,2.624,4.345
			c0.177,0.038,0.391,1.227,0.217,1.349c-1.78,1.24-0.833,2.664,0.043,3.556c0.758,0.772,2.154,0.919,3.915,1.589
			c-0.663-1.477-0.948-2.113-0.941-2.098c1.355-2.46,3.236-4.454,3.308-6.511c0.047-1.337-2.542-2.766-4.342-4.54
			c0.811-2.595,0.656-5.882-1.551-8.841c-1.543,0.566-2.934,1.076-4.325,1.59c-0.103,3.441,2.261,2.006,4.276,1.753
			c-0.052,1.131,0.045,2.777-0.155,2.814c-3.494,0.646-1.186,2.563-1.001,4.062C507.311,32.051,506.68,32.336,505.812,32.728z
			 M503.018,61.146c0.26,0.289,0.52,0.578,0.78,0.867c2.793-1.766,5.585-3.532,8.76-5.54c-2.708-0.756,1.353-4.324-2.452-4.709
			c0.106,0.887,0.193,1.613,0.28,2.339c-1.29-0.073-2.58-0.146-4.065-0.23C507.786,57.285,505.297,59.171,503.018,61.146z
			 M504.778,79.681c0.369-0.102,0.738-0.204,1.107-0.306c0.06-3.319,0.545-6.658-0.432-9.74c0.861-0.701,1.865-1.519,3.342-2.721
			c-4.179-0.253-5.006,0.441-5.028,3.458c-0.014,1.893-0.174,3.798-0.014,5.675C503.858,77.279,504.42,78.471,504.778,79.681z
			 M507.286,61.821c-0.044,0.416-0.089,0.831-0.133,1.247c1.963,0.785,3.925,1.569,5.888,2.354c0.24-0.293,0.48-0.586,0.72-0.879
			c-0.557-1.152-1.115-2.304-1.672-3.456c-0.644,0.463-1.288,0.926-1.785,1.283C509.305,62.189,508.295,62.005,507.286,61.821z
			 M518.001,18.912c0.982-4.815,0.982-4.815-3.309-5.166c0,0.962,0,1.921,0,3.047c0.958-0.177,1.707-0.315,2.443-0.451
			C517.373,17.049,517.594,17.704,518.001,18.912z M513.669,10.633c1.606-1.734,2.723-2.94,3.958-4.274
			C513.912,6.146,513.888,6.168,513.669,10.633z"/>
	</g>
	<g>
		<path class="st1" d="M36.858,117.99c0.365-0.079,0.731-0.158,1.084-0.234c0.439,4.366-1.344,6.557-5.325,7.589
			c-3.902,1.012-7.431-0.273-10.919-1.298c-1.112-0.327-1.676-2.775-2.326-4.322c-0.424-1.009-0.61-2.132-0.798-3.221
			c-0.369-2.133-0.591-4.292-1.006-6.415c-0.972-4.964-2.046-9.907-3.029-14.869c-0.348-1.758-0.528-3.548-0.825-5.316
			c-0.566-3.367-1.801-6.773-1.576-10.083c0.263-3.877-1.658-7.001-2.193-10.535c-0.094-0.618-0.013-1.262-0.013-2.109
			c0.697,0.106,1.331,0.202,2.136,0.324c-0.176-0.548-0.217-1.25-0.455-1.325c-2.887-0.906-2.126-3.711-2.809-5.638
			c-0.776-2.192-0.828-4.642-1.171-6.984c-0.757-5.177-1.347-10.385-2.294-15.527c-0.796-4.328-2.014-8.578-3.008-12.872
			c-0.162-0.701-0.095-1.452-0.193-2.172c-0.52-3.842-1.093-7.677-1.578-11.523c-0.28-2.219-0.728-4.487-0.5-6.67
			c0.102-0.978,1.627-2.505,2.592-2.574c3.949-0.282,7.935,0.012,11.901-0.119c3.315-0.109,4.248,2.134,4.651,4.605
			c0.687,4.217,0.98,8.497,1.559,12.735c0.678,4.968,1.555,9.909,2.184,14.882c0.16,1.267-0.29,2.611-0.502,4.25
			c3.89,5.571,0.793,12.871,3.522,19.079c-0.15,0.23-0.3,0.459-0.45,0.689c-1.011-0.257-2.022-0.514-3.458-0.879
			c-0.107,1.131-0.248,2.636-0.396,4.201c4.639-0.24,4.819-0.25,5.12,5.229c0.118,2.141,1.048,4.189,0.256,6.571
			c-0.446,1.339,0.925,3.283,1.531,5.116c0.642-0.508,1.184-0.937,1.946-1.539c0.142,0.917,0.257,1.654,0.391,2.519
			c0.631-0.207,1.191-0.392,1.759-0.578c-0.199-1.243-0.37-2.304-0.559-3.481c-0.763-0.156-1.541-0.316-2.516-0.516
			c4.455-10.542,4.559-21.814,6.476-32.741c0.954-5.439,2.144-10.837,3.099-16.276c0.455-2.591,0.545-5.243,0.919-7.851
			c0.6-4.183,1.317-8.348,1.945-12.527c0.305-2.026,1.218-3.444,3.441-3.425c3.819,0.032,7.689-0.154,11.425,0.45
			c1.136,0.184,2.7,2.669,2.696,4.097c-0.018,6.548,1.956,12.731,2.892,19.092c1.092,7.416,1.645,14.912,2.741,22.328
			c0.82,5.549,2.153,11.022,3.203,16.539c0.306,1.606,0.344,3.263,0.654,4.867c0.315,1.627,0.816,3.218,1.235,4.824
			c0.318,0.041,0.635,0.082,0.953,0.123c0.521-0.826,1.362-1.599,1.509-2.487c0.671-4.061,1.138-8.155,1.697-12.235
			c0.964-7.036,2.009-14.062,2.887-21.109c0.467-3.742,0.551-7.532,1.015-11.274c0.221-1.78,1.16-3.472,1.37-5.252
			c0.562-4.754,0.92-9.532,1.332-14.303c0.343-3.968,2.105-5.796,6.053-5.923c2.917-0.094,5.855-0.128,8.759,0.109
			c3.305,0.27,4.361,1.22,4.017,4.478c-0.58,5.511-1.695,10.965-2.573,16.444c-1.413,8.818-2.648,17.67-4.332,26.436
			c-0.48,2.5,0.181,5.566-2.401,7.495c-0.24,0.18-0.278,0.883-0.154,1.258c1.185,3.59,1.201,3.585-1.081,6.711
			c2.071,1.99,0.638,4.245,0.284,6.36c-0.687,4.102-1.568,8.175-2.478,12.235c-1.19,5.307-2.563,10.575-3.672,15.898
			c-0.229,1.097,0.422,2.356,0.542,3.554c0.077,0.766-0.005,1.567-0.136,2.333c-0.732,4.286-1.816,8.54-2.182,12.855
			c-0.577,6.794-1.65,7.933-8.82,7.507c-0.023-0.384-0.066-0.794-0.065-1.204c0.001-0.359,0.052-0.718-0.429-1.322
			c-0.455,0.866-0.911,1.732-1.494,2.841c-2.153-0.452-4.537-0.869-6.862-1.506c-0.524-0.144-1.12-1.014-1.206-1.617
			c-0.665-4.716-1.205-9.45-1.814-14.175c-0.05-0.384-0.259-0.803-0.519-1.094c-1.317-1.469-0.959-2.513,0.424-2.965
			c-0.666-1.068-1.636-1.97-1.805-3.004c-1.074-6.574-1.897-13.19-2.958-19.766c-0.491-3.044-1.443-6.012-1.987-9.051
			c-0.815-4.556-1.413-9.15-2.198-13.711c-0.207-1.203-0.762-2.346-1.23-3.732c-3.695,1.942-3.384,5.169-3.444,7.988
			c-0.88,0.088-1.636,0.164-2.392,0.24c0.491,0.67,0.982,1.341,1.603,2.189c-0.292,2.797-0.444,6.032-0.998,9.196
			c-1.251,7.136-2.664,14.244-4.088,21.348c-0.573,2.856,0.176,5.917-1.891,8.596c-0.836,1.083-0.713,3.088-0.635,4.654
			C39.07,112.491,39.281,115.442,36.858,117.99z M90.264,15.991c-1.261-3.154-2.457-6.142-3.765-9.413
			c-0.652,1.144-1.188,2.085-1.737,3.049c2.506,0.752,3.265,4.669,1.524,6.926c-0.969,1.256-1.676,2.715-2.501,4.082
			c0.198,0.17,0.396,0.339,0.594,0.509c-0.479,0-0.959,0-1.624,0c0.314,3.299,0.62,6.505,0.911,9.565
			c0.622-0.177,1.282-0.365,2.024-0.577c0-0.766,0-1.521,0-2.665c1.036,0.426,1.788,0.734,3.251,1.335
			c0.453-1.601,1.498-3.317,1.138-4.655c-0.278-1.035-2.315-1.597-3.586-2.379C87.627,20.034,88.99,17.945,90.264,15.991z
			 M50.58,10.484c-1.079-0.822-1.95-1.485-2.816-2.144c-2.454,2.666-2.599,5.899-0.404,8.645c0.841,1.052,5.797,1.137,7.796,0.179
			c-1.316-2.853-3.765-2.66-6.284-1.949C48.186,12.908,48.136,11.152,50.58,10.484z M82.836,39.673
			c1.817,0.761,2.985,1.25,4.213,1.764c0.467-2.026-0.358-3.29-2.337-3.463C84.174,37.927,83.538,39.005,82.836,39.673z"/>
		<path class="st1" d="M196.091,18.414c1.166,2.578,2.015,4.455,2.864,6.331c0.195-0.061,0.39-0.123,0.586-0.184
			c-0.149-0.473-0.323-0.94-0.443-1.42c-0.308-1.235-0.602-2.473-0.879-3.715c-0.059-0.262,0.077-0.606-0.046-0.811
			c-2.526-4.227,1.174-6.432,3.063-9.132c1.116-1.594,2.459-3.227,4.078-4.233c5.235-3.255,11.085-4.641,17.212-5.15
			c5.105-0.424,10.03,0.518,14.634,2.343c4.381,1.737,8.379,4.18,11.705,7.946c5.92,6.703,6.494,14.593,6.564,22.809
			c0.018,2.079,0.49,4.157,0.474,6.233c-0.03,3.97-0.388,7.939-0.384,11.909c0.015,13.414,0.145,26.827,0.198,40.241
			c0.026,6.6-0.256,13.32-3.303,19.213c-2.23,4.312-4.843,8.524-9.38,11.409c-7.975,5.071-16.493,6.017-25.244,4.003
			c-4.696-1.081-9.817-2.012-13.549-5.764c-3.536-3.555-6.755-7.22-8.334-12.209c-2.877-9.086-2.796-18.243-1.439-27.507
			c0.053-0.36,0.108-0.738,0.056-1.091c-1.742-11.628-0.61-23.254-0.123-34.893c0.242-5.778-0.299-11.588-0.093-17.37
			C194.406,24.529,195.401,21.717,196.091,18.414z M240.055,50.994c-2.528-1.35-4.871-2.175-4.813-5.67
			c0.102-6.148-0.288-12.307-0.56-18.457c-0.194-4.389-3.235-8.14-6.841-8.993c-4.178-0.988-10.452,0.49-11.971,5.18
			c-0.717,2.214-1.641,4.489-1.709,6.759c-0.187,6.269,0.031,12.55,0.083,18.826c0.013,1.548,0.016,3.097,0.004,4.645
			c-0.11,14.323-0.234,28.646-0.319,42.969c-0.008,1.271,0.168,2.554,0.367,3.815c0.561,3.564,1.841,6.817,5.631,7.896
			c2.403,0.684,5.029,0.969,7.527,0.851c4.107-0.194,6.576-2.042,7.046-5.185c0.617-4.121,1.142-8.293,1.2-12.45
			c0.065-4.679-0.572-9.364-0.653-14.051c-0.124-7.154-0.032-14.311-0.032-21.442c0.358,0.061,0.93,0.158,2.224,0.377
			c-3.076-2.638-2.974-3.996-0.389-5.128c0.193,0.856,0.393,1.743,0.682,3.02C238.535,52.778,239.22,51.974,240.055,50.994z
			 M207.968,52.235c0.175-4.314-0.869-5.766-4.796-6.301c-0.652-0.089-2.232,1.446-2.119,1.733
			c1.466,3.726,3.161,7.362,4.785,10.991c0.571-1.966,3.056-3.981-0.632-5.999C206.483,52.464,207.181,52.356,207.968,52.235z
			 M225.146,5.017c-0.953,1.061-1.627,1.673-2.122,2.406c-0.399,0.591-0.98,1.522-0.769,1.955c0.344,0.705,1.197,1.416,1.964,1.606
			c1.536,0.381,3.999,1.107,4.558,0.432c0.952-1.151,0.737-3.272,0.986-4.989c0.02-0.139-0.163-0.307-0.472-0.848
			C227.9,5.39,226.244,5.165,225.146,5.017z M195.492,33.104c0.156,0.99,0.318,2.019,0.48,3.049
			c0.789-0.214,1.579-0.429,2.484-0.674c0,1.464,0,2.932,0,4.4c0.321,0.042,0.642,0.084,0.963,0.126
			c0.279-1.586,0.627-3.164,0.818-4.76c0.199-1.669-0.355-3.793,0.482-4.947c1.943-2.678-0.174-3.058-1.257-3.959
			c-0.67,1.377-1.268,2.605-1.895,3.895C198.968,31.815,198.759,32.188,195.492,33.104z M248.605,28.354
			c0.389-4.412-2.363-7.479-3.354-11.036c-0.192,0.841-0.385,1.681-0.516,2.256c-1.302,0.116-2.363,0.211-2.897,0.258
			c0.79,2.443,1.469,4.546,2.03,6.282c0.709-0.426,1.699-1.022,2.689-1.617C247.129,25.573,247.7,26.65,248.605,28.354z
			 M202.988,53.525c-1.526-0.222-3.314-1.007-3.907-0.47c-1.753,1.587-0.887,3.738-0.578,5.925c0.895-1.081,1.669-2.574,2.136-2.483
			C202.902,56.935,202.509,55.346,202.988,53.525z M249.355,42.308c0.148-2.775,0.016-5.082-1.941-6.895c0,2.315,0,4.631,0,7.042
			C247.824,42.424,248.511,42.372,249.355,42.308z M210.387,19.125c0.086-1.445,0.45-2.433,0.108-2.872
			c-0.697-0.894-1.774-1.491-2.849-2.332c-0.421,0.6-0.838,1.196-1.263,1.802C207.655,16.804,208.721,17.71,210.387,19.125z
			 M201.811,90.423c-1.219-1.335-2.066-2.264-2.914-3.193c-0.24,0.155-0.48,0.31-0.719,0.465c0.058,1.188,0.115,2.375,0.182,3.754
			C199.446,91.126,200.206,90.9,201.811,90.423z M201.23,65.892c-0.905,1.093-1.663,2.008-2.699,3.259
			c1.773,0.216,2.961,0.36,4.367,0.531C202.318,68.364,201.874,67.357,201.23,65.892z"/>
		<path class="st1" d="M114.139,69.23c0.921,0.469,1.59,0.809,2.258,1.149c0.157-0.267,0.315-0.534,0.472-0.801
			c-0.832-0.504-1.663-1.008-2.462-1.492c0-5.204-0.225-10.77,0.058-16.31c0.337-6.592-0.192-13.165,0.046-19.759
			c0.309-8.534,0.025-17.092-0.108-25.638c-0.034-2.197,1.157-3.676,2.917-3.863c4.063-0.431,8.194-0.572,12.275-0.368
			c3.257,0.162,4.625,1.787,4.69,5.087c0.121,6.154,0.018,12.312,0.013,18.468c-0.004,5.217-0.001,10.434-0.001,15.873
			c-1.453-0.239-3.134-0.514-4.423-0.726c-1.049-1.171-1.833-2.748-3.016-3.151c-0.996-0.339-2.457,0.69-3.711,1.113
			c0.08,0.233,0.16,0.466,0.239,0.698c1.187,0.532,2.374,1.063,2.857,1.279c-0.249,1.659-0.939,3.134-0.547,4.217
			c1.358,3.752,1.502,3.7-0.191,6.296c0.651,0.906,1.208,1.873,1.952,2.664c0.77,0.818,1.721,1.465,2.963,1.953
			c-0.362-0.709-0.611-1.512-1.107-2.112c-2-2.42-0.708-5.031-0.495-7.56c0.095-1.13,3.805-2.474,5.23-2.003
			c-1.366,4.749,1.074,9.245,5.982,9.858c3.831,0.478,7.832,0.289,11.676-0.218c3.984-0.525,4.763-1.833,4.796-5.898
			c0.085-10.542,0.136-21.084,0.206-31.626c0.002-0.36,0.066-0.719,0.099-1.049c0.949-0.521,1.843-1.011,2.855-1.566
			c-1.165-1.008-2.756-1.737-2.804-2.554c-0.118-2.042,0.337-4.155,0.812-6.181c0.335-1.427,1.33-2.111,3.026-2.11
			c4.054,0.002,8.109-0.267,12.163-0.446c2.138-0.094,3.254,1.101,3.49,3.028c0.341,2.796,0.668,5.619,0.647,8.428
			c-0.099,13.019-0.287,26.037-0.513,39.055c-0.113,6.546-0.468,13.089-0.527,19.634c-0.028,3.09,0.5,6.181,0.567,9.276
			c0.121,5.549,0.077,11.102,0.116,16.653c0.035,4.925,0.117,9.85,0.123,14.775c0.004,2.995,0.08,6.01-0.259,8.973
			c-0.102,0.895-1.438,2.288-2.291,2.352c-4.996,0.373-10.019,0.551-15.025,0.448c-0.859-0.018-1.719-1.674-2.5-2.637
			c-0.182-0.225-0.058-0.71-0.052-1.075c0.168-10.835,0.399-21.67,0.479-32.506c0.032-4.368-0.191-8.743-0.449-13.105
			c-0.103-1.741-0.963-3.159-2.976-3.346c-1.806-0.168-3.613-0.359-5.424-0.413c-2.37-0.071-4.764,0.174-7.113-0.061
			c-4.571-0.457-6.253,0.892-6.402,5.567c-0.16,5.01-0.374,10.02-0.416,15.031c-0.077,9.215-0.03,18.43-0.067,27.645
			c-0.017,4.263-0.538,4.944-4.821,5.13c-4.029,0.175-8.079,0.086-12.111-0.091c-2.652-0.116-3.035-2.492-3.056-4.339
			c-0.191-16.326-0.225-32.653-0.296-48.98C113.981,71.111,114.073,70.324,114.139,69.23z M124.046,9.925
			c-0.186-1.11-0.371-2.22-0.629-3.765c-1.264,1.138-2.323,2.092-3.383,3.046c0.063,0.22,0.125,0.439,0.188,0.659
			c1.298,0,2.595,0,3.893,0c-0.677,1.287-1.354,2.575-2.149,4.086c0.973-0.125,1.798-0.232,2.389-0.308
			c0.576,1.402,1.13,2.749,1.65,4.015c0.927-1.25,1.633-2.201,2.339-3.152c0.322-0.606,0.346-1.633,0.473-2.646
			c0.226-1.799-1.227-3.026-2.968-2.47C125.257,9.579,124.658,9.738,124.046,9.925z M146.89,65.578
			c0.031-0.383,0.062-0.767,0.093-1.15c-0.673-0.276-1.436-0.435-1.989-0.865c-0.425-0.331-0.583-1.004-0.86-1.524
			c0.509,0.055,1.025,0.076,1.525,0.175c0.493,0.097,1.091,0.533,1.436,0.372c2.142-0.995,3.745-0.834,4.29,1.858
			c2.842-2.024-1.532-2.691-0.433-4.607c1.038,0.469,2.034,0.919,3.183,1.439c0.294-0.896,0.537-1.637,0.754-2.297
			c-1.93,0-3.733,0-6.259,0c-2.849-1.795-6.687,0.245-10.921-0.475c1.301,2.945,2.37,5.363,3.605,8.156
			C143.181,66.298,145.036,65.938,146.89,65.578z M168.66,39.506c-0.49,1.058-0.785,1.697-1.081,2.336
			c1.057,0.259,2.114,0.519,3.028,0.743c0-7.268,0-14.053,0-21.33c-0.897,1.603-2.162,2.983-2.392,4.517
			c-0.238,1.587,0.529,3.324,0.736,4.383c-0.732,0.567-1.343,0.945-1.835,1.442c-0.803,0.81-1.543,1.683-2.281,2.554
			c-0.658,0.777-1.277,1.587-1.914,2.382C167.677,33.079,166.648,39.332,168.66,39.506z M171.016,58.33
			c-0.503-5.191-4.761-5.873-8.46-7.516c-0.922,1.236-1.863,2.497-2.541,3.405c2.705,2.069,4.986,3.814,7.434,5.687
			C168.434,59.471,169.636,58.94,171.016,58.33z M167.381,106.484c-1.157-3.354,1.49-5.511,3.451-7.939
			c-0.728-1.043-1.385-1.984-2.348-3.365c0.887-0.18,1.571-0.257,2.2-0.485c0.174-0.063,0.313-0.609,0.241-0.872
			c-0.097-0.358-0.45-0.95-0.627-0.927c-0.561,0.073-1.362,0.23-1.588,0.629c-1.266,2.238-2.36,4.573-3.573,6.842
			c-0.826,1.546-1.749,3.039-2.491,4.319C164.513,105.395,165.823,105.892,167.381,106.484z M165.719,110.461
			c-1.231,1.253-2.683,2.36-3.637,3.797c-1.175,1.771,0.969,2.112,1.726,3.063c0.382,0.48,0.421,1.4,0.867,1.628
			c0.784,0.402,1.806,0.67,2.643,0.519c0.529-0.095,1.073-0.993,1.297-1.639c0.221-0.64,0.048-1.417,0.048-2.256
			C165.31,115.517,166.911,112.841,165.719,110.461z M121.165,25.395c1.51-1.33,2.488-6.129,1.267-7.603
			c-0.726-0.877-2.519-0.87-3.832-1.26c-0.199,0.244-0.398,0.488-0.598,0.732C119.044,19.94,120.084,22.616,121.165,25.395z
			 M164.123,17.799c-1.182-0.547-2.112-0.977-3.545-1.639c0.473,2.695,0.851,4.845,1.228,6.996c0.289,0.042,0.577,0.083,0.866,0.125
			c1.247-2.455,2.5-4.907,3.687-7.39c0.021-0.043-0.749-0.465-1.181-0.729C164.801,16.103,164.501,16.853,164.123,17.799z
			 M128.3,31.099c-1.843-2.246-3.29-4.009-5.064-6.171C122.423,28.918,124.551,31.633,128.3,31.099z M117.686,26.462
			c1.109,1.198,1.939,2.094,2.769,2.99c0.538-0.506,1.597-1.104,1.527-1.502C121.644,26.06,120.332,25.589,117.686,26.462z
			 M162.273,45.432c0.311-0.089,0.622-0.177,0.933-0.266c0.186-0.718,0.135-1.775,0.597-2.1c2.833-1.989,0.687-2.55-0.372-3.247
			c-0.501,1.284-1.056,2.424-1.369,3.627C161.905,44.049,162.188,44.767,162.273,45.432z"/>
		<path class="st1" d="M359.273,71.213c-2.792-1.408-2.13,1.655-2.968,2.69c1.244-0.371,2.489-0.742,4.389-1.308
			c1.457,3.546,2.752,7.256,4.476,10.755c2.463,5.001,2.826,10.332,2.51,15.652c-0.24,4.04-1.089,8.13-2.319,11.99
			c-0.678,2.129-2.608,3.909-4.134,5.71c-5.743,6.781-13.433,9.295-21.985,9.758c-5.292,0.287-10.469-0.434-15.45-2.279
			c-1.369-0.507-2.64-1.279-3.955-1.929c0.157-0.289,0.313-0.577,0.47-0.866c0.726,0.436,1.451,0.872,2.699,1.622
			c-0.111-1.092,0.087-2.147-0.345-2.596c-0.494-0.513-1.597-0.742-2.34-0.599c-0.469,0.09-0.764,1.087-1.338,1.992
			c-0.655-0.499-1.628-1.059-2.373-1.837c-5.957-6.225-8.882-13.712-9.217-22.284c-0.103-2.643-0.414-5.277-0.611-7.916
			c-0.283-3.795,0.999-5.896,4.725-6.278c3.663-0.375,7.422-0.18,11.105,0.151c2.449,0.221,3.604,1.777,3.517,4.552
			c-0.121,3.878,0.139,7.795,0.568,11.658c0.532,4.789,2.889,8.417,7.867,9.535c4.633,1.04,8.507-0.395,11.771-3.962
			c2.4-2.624,2.746-5.372,2.156-8.732c-0.391-2.228,0.027-4.634,0.346-6.923c0.071-0.511,1.243-0.869,2.24-1.511
			c-0.691-0.761-1.339-1.476-1.988-2.19c-0.254,0.054-0.508,0.108-0.762,0.161c-0.181,1.485-0.362,2.97-0.543,4.455
			c-0.146,0.036-0.291,0.072-0.437,0.108c-0.67-1.608-1.117-3.364-2.059-4.793c-1.591-2.413-3.491-4.622-5.268-6.911
			c-0.777-1-1.61-1.957-2.353-2.981c-3.076-4.238-7.293-7.167-11.394-10.285c-1.984-1.508-3.522-3.638-5.129-5.597
			c-2.295-2.799-4.725-5.54-6.614-8.604c-1.588-2.576-2.561-5.55-3.621-8.416c-0.196-0.531,0.488-1.388,0.062-1.782
			c-0.601-1.071-1.479-2.076-1.753-3.226c-1-4.187-2.577-8.402-1.238-12.762c1.212-3.944,2.655-7.827,4.188-11.66
			c1.759-4.396,5.588-7.161,9.088-9.885c2.279-1.774,5.596-2.652,8.561-3.015c5.472-0.671,10.908-1.028,16.545,0.187
			c9.19,1.981,14.613,7.806,17.274,16.007c2.111,6.507,2.601,13.521,2.054,20.484c-0.131,1.669-0.616,3.042-2.353,3.09
			c-4.614,0.127-9.244,0.163-13.844-0.138c-0.719-0.047-1.719-1.99-1.876-3.153c-0.329-2.427-0.444-4.948-0.167-7.376
			c0.399-3.502-0.928-6.481-2.67-9.15c-3.327-5.097-12.31-4.127-15.201,1.199c-3.495,6.439-2.077,11.963,1.322,18.08
			c3.193,5.745,8.346,9.43,12.356,14.26c2.482,2.99,5.752,5.311,8.458,8.133C354.373,65.272,356.765,68.298,359.273,71.213z
			 M320.811,113.951c1.311-0.819,2.782-1.239,2.928-1.937c0.277-1.323,0.269-3.664-0.458-4.065c-2.38-1.314-2.255-3.667-3.136-5.589
			c-0.27-0.59-0.417-1.236-0.605-1.807c-4.831,1.695-3.297,5.468-3.419,8.8c0.981,0.329,1.959,0.657,2.974,0.998
			c0.296-0.858,0.532-1.542,0.769-2.227c0.219,0.008,0.438,0.016,0.658,0.024C320.606,109.831,320.69,111.513,320.811,113.951z
			 M320.577,38.032c-0.268,0.016-0.536,0.033-0.804,0.049c-0.791,1.929-4.153,3.63-0.308,5.983c0.42,0.257,0.605,0.886,0.92,1.327
			c0.755,1.06,1.361,2.322,2.35,3.083c0.548,0.422,1.745-0.001,2.65-0.044c-0.287-0.745-0.368-1.718-0.897-2.193
			c-1.839-1.653-3.558-3.252-3.345-6.052C321.196,39.486,320.778,38.751,320.577,38.032z M314.96,100.111
			c1.406-0.502,2.72-0.971,4.517-1.612c-1.828-2.071-3.382-3.832-4.936-5.593c-0.338,0.189-0.676,0.377-1.014,0.566
			C313.066,95.801,313.309,98.021,314.96,100.111z M328.727,56.455c0.86-1.975,1.652-3.795,2.487-5.711
			c-1.814-2.902-2.069-2.976-4.148-1.395C327.625,51.742,328.151,53.99,328.727,56.455z M328.101,118.689
			c1.895-2.147-0.898-2.119-1.368-3.146c-0.529-1.158-0.98-2.351-1.693-4.085C323.757,115.383,324.688,117.598,328.101,118.689z
			 M337.74,62.686c-3.452,1.485-3.629,2.171-1.614,4.914C336.648,66.011,337.098,64.642,337.74,62.686z"/>
		<path class="st1" d="M275.112,33.257c-0.32-3.226-0.863-6.449-0.911-9.679c-0.086-5.837-0.236-11.66-0.794-17.474
			c-0.225-2.346,1.044-3.664,3.308-3.734c3.172-0.099,6.368-0.132,9.516,0.182c0.773,0.077,1.941,1.575,1.996,2.477
			c0.18,2.949-0.03,5.927-0.161,8.891c-0.272,6.148-0.531,12.298-0.91,18.44c-0.222,3.598-0.639,7.184-1.014,10.771
			c-0.193,1.846-1.388,2.312-3.084,2.185c-5.916-0.441-7.901-1.589-8.238-8.21c-0.065-1.272-0.009-2.551-0.009-3.826
			C274.912,33.273,275.012,33.265,275.112,33.257z"/>
	</g>
</g>
</svg>